<?xml version="1.0" encoding="utf-8"?>
<!-- Svg Vector Icons : http://www.onlinewebfonts.com/icon -->
<!DOCTYPE svg PUBLIC "-//W3C//DTD SVG 1.1//EN" "http://www.w3.org/Graphics/SVG/1.1/DTD/svg11.dtd">
<svg version="1.1" xmlns="http://www.w3.org/2000/svg" xmlns:xlink="http://www.w3.org/1999/xlink" x="0px" y="0px" viewBox="0 0 1000 1000" enable-background="new 0 0 1000 1000" xml:space="preserve">
<metadata> Svg Vector Icons : http://www.onlinewebfonts.com/icon </metadata>
<g><g transform="translate(0.000000,511.000000) scale(0.100000,-0.100000)"><path d="M2545.2,112.6L100-4257l2449-5.7c1348-1.9,3553.9-1.9,4901.9,0l2449,5.7L7454.8,112.6c-1344.2,2405-2449,4371.5-2454.8,4371.5S3889.4,2517.6,2545.2,112.6z M5742.9,2540.6c459.6-819.5,729.6-1319.3,720-1334.6c-55.5-93.8-800.4-1164.2-810-1164.2c-7.7,1.9-614.6,769.8-922.9,1170c-32.5,44,103.4,141.7-1956.9-1434.2L2662-306.7l63.2,113c691.2,1242.7,2267.1,4046,2274.8,4046C5005.7,3852.3,5338.9,3262.5,5742.9,2540.6z M8017.7-1516.9C8753-2832.3,9358.1-3920,9361.9-3935.3c5.8-21.1-741-24.9-4360-24.9c-2447.1,0-4367.7,7.7-4367.7,17.2c0,7.6,373.4,679.8,827.2,1491.6L2290.5-975L3449-90.3C4086.6,396,4617,800.1,4626.6,807.7c11.5,9.6,218.3-237.4,526.6-633.8c277.6-356.2,511.2-649.1,517-649.1c7.7,0,227.9,314,490.2,697c352.3,515.1,482.5,691.2,497.9,674C6669.7,884.3,7282.4-201.4,8017.7-1516.9z"/></g></g>
</svg>